<svg width="100mm" height="140mm" viewBox="0 0 100 140" xmlns="http://www.w3.org/2000/svg">
  <title>Advance Seeds ArUco Calibration Card</title>
  <desc>OpenCV DICT_4X4_50 marker ID 0, printed marker size 50 mm.</desc>
  <rect x="0" y="0" width="100" height="140" fill="white"/>
<rect x="25.0" y="20" width="50" height="50" fill="white" stroke="#111" stroke-width="0.2"/>
<rect x="25.000000" y="20.000000" width="8.333333" height="8.333333" fill="black"/>
<rect x="33.333333" y="20.000000" width="8.333333" height="8.333333" fill="black"/>
<rect x="41.666667" y="20.000000" width="8.333333" height="8.333333" fill="black"/>
<rect x="50.000000" y="20.000000" width="8.333333" height="8.333333" fill="black"/>
<rect x="58.333333" y="20.000000" width="8.333333" height="8.333333" fill="black"/>
<rect x="66.666667" y="20.000000" width="8.333333" height="8.333333" fill="black"/>
<rect x="25.000000" y="28.333333" width="8.333333" height="8.333333" fill="black"/>
<rect x="41.666667" y="28.333333" width="8.333333" height="8.333333" fill="black"/>
<rect x="66.666667" y="28.333333" width="8.333333" height="8.333333" fill="black"/>
<rect x="25.000000" y="36.666667" width="8.333333" height="8.333333" fill="black"/>
<rect x="33.333333" y="36.666667" width="8.333333" height="8.333333" fill="black"/>
<rect x="50.000000" y="36.666667" width="8.333333" height="8.333333" fill="black"/>
<rect x="66.666667" y="36.666667" width="8.333333" height="8.333333" fill="black"/>
<rect x="25.000000" y="45.000000" width="8.333333" height="8.333333" fill="black"/>
<rect x="33.333333" y="45.000000" width="8.333333" height="8.333333" fill="black"/>
<rect x="41.666667" y="45.000000" width="8.333333" height="8.333333" fill="black"/>
<rect x="66.666667" y="45.000000" width="8.333333" height="8.333333" fill="black"/>
<rect x="25.000000" y="53.333333" width="8.333333" height="8.333333" fill="black"/>
<rect x="33.333333" y="53.333333" width="8.333333" height="8.333333" fill="black"/>
<rect x="41.666667" y="53.333333" width="8.333333" height="8.333333" fill="black"/>
<rect x="58.333333" y="53.333333" width="8.333333" height="8.333333" fill="black"/>
<rect x="66.666667" y="53.333333" width="8.333333" height="8.333333" fill="black"/>
<rect x="25.000000" y="61.666667" width="8.333333" height="8.333333" fill="black"/>
<rect x="33.333333" y="61.666667" width="8.333333" height="8.333333" fill="black"/>
<rect x="41.666667" y="61.666667" width="8.333333" height="8.333333" fill="black"/>
<rect x="50.000000" y="61.666667" width="8.333333" height="8.333333" fill="black"/>
<rect x="58.333333" y="61.666667" width="8.333333" height="8.333333" fill="black"/>
<rect x="66.666667" y="61.666667" width="8.333333" height="8.333333" fill="black"/>
  <text x="50.0" y="84" text-anchor="middle" font-family="Arial, Helvetica, sans-serif" font-size="5" font-weight="700" fill="#111">Advance Seeds Calibration</text>
  <text x="50.0" y="92" text-anchor="middle" font-family="Arial, Helvetica, sans-serif" font-size="3.8" fill="#333">ArUco DICT_4X4_50 · ID 0 · 50 mm</text>
  <line x1="25.0" y1="90" x2="75.0" y2="90" stroke="#111" stroke-width="0.4"/>
  <line x1="25.0" y1="88" x2="25.0" y2="92" stroke="#111" stroke-width="0.4"/>
  <line x1="75.0" y1="88" x2="75.0" y2="92" stroke="#111" stroke-width="0.4"/>
  <text x="50.0" y="98" text-anchor="middle" font-family="Arial, Helvetica, sans-serif" font-size="3.5" fill="#333">Print at 100%. Do not scale. Marker black square is 50 mm.</text>
</svg>
